<svg xmlns="http://www.w3.org/2000/svg" width="960" height="540" viewBox="0 0 960 540">
  <rect width="960" height="540" fill="#f7f4ed"/>
  <text x="60" y="70" font-size="30" font-family="Arial" fill="#1f2937">Tools Architecture</text>
  <rect x="60" y="120" width="180" height="80" rx="12" fill="#dbeafe" stroke="#2563eb"/>
  <text x="105" y="168" font-size="24" font-family="Arial" fill="#1e3a8a">Agent</text>
  <rect x="300" y="120" width="180" height="80" rx="12" fill="#fde68a" stroke="#d97706"/>
  <text x="332" y="168" font-size="24" font-family="Arial" fill="#92400e">Skill</text>
  <rect x="540" y="120" width="180" height="80" rx="12" fill="#dcfce7" stroke="#16a34a"/>
  <text x="579" y="168" font-size="24" font-family="Arial" fill="#166534">Tool API</text>
  <rect x="740" y="90" width="150" height="60" rx="10" fill="#fee2e2" stroke="#dc2626"/>
  <text x="772" y="126" font-size="20" font-family="Arial" fill="#991b1b">CLI</text>
  <rect x="740" y="165" width="150" height="60" rx="10" fill="#e0e7ff" stroke="#4f46e5"/>
  <text x="770" y="201" font-size="20" font-family="Arial" fill="#312e81">Browser</text>
  <rect x="740" y="240" width="150" height="60" rx="10" fill="#ecfccb" stroke="#65a30d"/>
  <text x="792" y="276" font-size="20" font-family="Arial" fill="#365314">API</text>
  <rect x="740" y="315" width="150" height="60" rx="10" fill="#fae8ff" stroke="#a21caf"/>
  <text x="768" y="351" font-size="20" font-family="Arial" fill="#701a75">Fetcher</text>
  <rect x="540" y="330" width="180" height="100" rx="12" fill="#fff7ed" stroke="#ea580c"/>
  <text x="565" y="378" font-size="22" font-family="Arial" fill="#9a3412">Validation /</text>
  <text x="582" y="406" font-size="22" font-family="Arial" fill="#9a3412">Guardrails</text>
  <line x1="240" y1="160" x2="300" y2="160" stroke="#374151" stroke-width="4"/>
  <line x1="480" y1="160" x2="540" y2="160" stroke="#374151" stroke-width="4"/>
  <line x1="720" y1="160" x2="740" y2="120" stroke="#374151" stroke-width="3"/>
  <line x1="720" y1="160" x2="740" y2="195" stroke="#374151" stroke-width="3"/>
  <line x1="720" y1="160" x2="740" y2="270" stroke="#374151" stroke-width="3"/>
  <line x1="720" y1="160" x2="740" y2="345" stroke="#374151" stroke-width="3"/>
  <line x1="630" y1="200" x2="630" y2="330" stroke="#374151" stroke-width="3"/>
  <text x="60" y="485" font-size="20" font-family="Arial" fill="#475569">A stable tool layer separates task intent, execution interface, and risk control.</text>
</svg>
