<svg xmlns="http://www.w3.org/2000/svg" width="960" height="520" viewBox="0 0 960 520">
  <rect width="960" height="520" fill="#fffaf0"/>
  <text x="60" y="70" font-size="30" font-family="Arial" fill="#1f2937">Codex Best-Practice Loop</text>
  <rect x="60" y="120" width="180" height="70" rx="12" fill="#dbeafe" stroke="#2563eb"/>
  <text x="104" y="163" font-size="22" font-family="Arial" fill="#1e3a8a">Goal / Context</text>
  <rect x="280" y="120" width="170" height="70" rx="12" fill="#fde68a" stroke="#d97706"/>
  <text x="320" y="163" font-size="22" font-family="Arial" fill="#92400e">Plan first</text>
  <rect x="490" y="120" width="170" height="70" rx="12" fill="#dcfce7" stroke="#16a34a"/>
  <text x="534" y="163" font-size="22" font-family="Arial" fill="#166534">Edit task</text>
  <rect x="700" y="120" width="180" height="70" rx="12" fill="#fee2e2" stroke="#dc2626"/>
  <text x="736" y="163" font-size="22" font-family="Arial" fill="#991b1b">Validate</text>
  <rect x="490" y="260" width="170" height="70" rx="12" fill="#e0e7ff" stroke="#4f46e5"/>
  <text x="519" y="303" font-size="22" font-family="Arial" fill="#312e81">Record rule</text>
  <rect x="280" y="260" width="170" height="70" rx="12" fill="#ecfccb" stroke="#65a30d"/>
  <text x="302" y="303" font-size="22" font-family="Arial" fill="#365314">Open new turn</text>
  <line x1="240" y1="155" x2="280" y2="155" stroke="#374151" stroke-width="4"/>
  <line x1="450" y1="155" x2="490" y2="155" stroke="#374151" stroke-width="4"/>
  <line x1="660" y1="155" x2="700" y2="155" stroke="#374151" stroke-width="4"/>
  <line x1="790" y1="190" x2="575" y2="260" stroke="#374151" stroke-width="4"/>
  <line x1="490" y1="295" x2="450" y2="295" stroke="#374151" stroke-width="4"/>
  <text x="60" y="435" font-size="20" font-family="Arial" fill="#475569">The practical trick is to shorten turns, validate often, and promote repeated corrections into AGENTS.md.</text>
</svg>
