<svg xmlns="http://www.w3.org/2000/svg" width="960" height="540" viewBox="0 0 960 540">
  <rect width="960" height="540" fill="#f8fafc"/>
  <text x="60" y="70" font-size="30" font-family="Arial" fill="#1f2937">OpenClaw Gateway Architecture</text>
  <rect x="60" y="140" width="160" height="80" rx="12" fill="#dbeafe" stroke="#2563eb"/>
  <text x="95" y="188" font-size="24" font-family="Arial" fill="#1e3a8a">Channels</text>
  <rect x="280" y="140" width="220" height="100" rx="12" fill="#fde68a" stroke="#d97706"/>
  <text x="336" y="188" font-size="24" font-family="Arial" fill="#92400e">Gateway</text>
  <text x="315" y="218" font-size="18" font-family="Arial" fill="#92400e">routing / auth / approvals</text>
  <rect x="570" y="140" width="180" height="80" rx="12" fill="#dcfce7" stroke="#16a34a"/>
  <text x="603" y="188" font-size="24" font-family="Arial" fill="#166534">Runtime</text>
  <rect x="780" y="85" width="120" height="60" rx="10" fill="#fee2e2" stroke="#dc2626"/>
  <text x="816" y="122" font-size="20" font-family="Arial" fill="#991b1b">Model</text>
  <rect x="780" y="165" width="120" height="60" rx="10" fill="#e0e7ff" stroke="#4f46e5"/>
  <text x="814" y="202" font-size="20" font-family="Arial" fill="#312e81">Skills</text>
  <rect x="780" y="245" width="120" height="60" rx="10" fill="#ecfccb" stroke="#65a30d"/>
  <text x="800" y="282" font-size="20" font-family="Arial" fill="#365314">Memory</text>
  <rect x="780" y="325" width="120" height="60" rx="10" fill="#fae8ff" stroke="#a21caf"/>
  <text x="786" y="362" font-size="20" font-family="Arial" fill="#701a75">Workspace</text>
  <rect x="300" y="330" width="180" height="90" rx="12" fill="#fff7ed" stroke="#ea580c"/>
  <text x="336" y="380" font-size="24" font-family="Arial" fill="#9a3412">Dashboard</text>
  <line x1="220" y1="180" x2="280" y2="180" stroke="#374151" stroke-width="4"/>
  <line x1="500" y1="180" x2="570" y2="180" stroke="#374151" stroke-width="4"/>
  <line x1="750" y1="180" x2="780" y2="115" stroke="#374151" stroke-width="3"/>
  <line x1="750" y1="180" x2="780" y2="195" stroke="#374151" stroke-width="3"/>
  <line x1="750" y1="180" x2="780" y2="275" stroke="#374151" stroke-width="3"/>
  <line x1="750" y1="180" x2="780" y2="355" stroke="#374151" stroke-width="3"/>
  <line x1="390" y1="240" x2="390" y2="330" stroke="#374151" stroke-width="4"/>
  <text x="60" y="480" font-size="20" font-family="Arial" fill="#475569">OpenClaw acts as the long-running gateway between user channels and an agent workspace.</text>
</svg>
