<svg xmlns="http://www.w3.org/2000/svg" width="960" height="520" viewBox="0 0 960 520">
  <rect width="960" height="520" fill="#fffaf0"/>
  <text x="60" y="70" font-size="30" font-family="Arial" fill="#1f2937">OpenClaw Rollout Workflow</text>
  <rect x="70" y="120" width="150" height="70" rx="12" fill="#dbeafe" stroke="#2563eb"/>
  <text x="113" y="163" font-size="22" font-family="Arial" fill="#1e3a8a">Install</text>
  <rect x="260" y="120" width="170" height="70" rx="12" fill="#fde68a" stroke="#d97706"/>
  <text x="293" y="163" font-size="22" font-family="Arial" fill="#92400e">Connect model</text>
  <rect x="470" y="120" width="180" height="70" rx="12" fill="#dcfce7" stroke="#16a34a"/>
  <text x="507" y="163" font-size="22" font-family="Arial" fill="#166534">Verify dashboard</text>
  <rect x="690" y="120" width="180" height="70" rx="12" fill="#fee2e2" stroke="#dc2626"/>
  <text x="726" y="163" font-size="22" font-family="Arial" fill="#991b1b">Add channel</text>
  <rect x="260" y="260" width="170" height="70" rx="12" fill="#e0e7ff" stroke="#4f46e5"/>
  <text x="303" y="303" font-size="22" font-family="Arial" fill="#312e81">Load skills</text>
  <rect x="470" y="260" width="180" height="70" rx="12" fill="#ecfccb" stroke="#65a30d"/>
  <text x="505" y="303" font-size="22" font-family="Arial" fill="#365314">Tune memory</text>
  <rect x="690" y="260" width="180" height="70" rx="12" fill="#fae8ff" stroke="#a21caf"/>
  <text x="717" y="303" font-size="22" font-family="Arial" fill="#701a75">Enable automation</text>
  <line x1="220" y1="155" x2="260" y2="155" stroke="#374151" stroke-width="4"/>
  <line x1="430" y1="155" x2="470" y2="155" stroke="#374151" stroke-width="4"/>
  <line x1="650" y1="155" x2="690" y2="155" stroke="#374151" stroke-width="4"/>
  <line x1="345" y1="190" x2="345" y2="260" stroke="#374151" stroke-width="4"/>
  <line x1="560" y1="190" x2="560" y2="260" stroke="#374151" stroke-width="4"/>
  <line x1="780" y1="190" x2="780" y2="260" stroke="#374151" stroke-width="4"/>
  <text x="60" y="440" font-size="20" font-family="Arial" fill="#475569">A stable deployment starts with local control plane verification before any multi-channel or multi-agent expansion.</text>
</svg>
