<svg xmlns="http://www.w3.org/2000/svg" width="960" height="540" viewBox="0 0 960 540">
  <rect width="960" height="540" fill="#f8fafc"/>
  <text x="60" y="70" font-size="30" font-family="Arial" fill="#1f2937">MCP Role Model</text>
  <rect x="70" y="160" width="180" height="90" rx="12" fill="#dbeafe" stroke="#2563eb"/>
  <text x="115" y="212" font-size="24" font-family="Arial" fill="#1e3a8a">Host / Client</text>
  <rect x="330" y="160" width="220" height="90" rx="12" fill="#fde68a" stroke="#d97706"/>
  <text x="397" y="212" font-size="24" font-family="Arial" fill="#92400e">MCP Protocol</text>
  <rect x="630" y="160" width="180" height="90" rx="12" fill="#dcfce7" stroke="#16a34a"/>
  <text x="678" y="212" font-size="24" font-family="Arial" fill="#166534">MCP Server</text>
  <rect x="760" y="60" width="140" height="60" rx="10" fill="#fee2e2" stroke="#dc2626"/>
  <text x="805" y="96" font-size="20" font-family="Arial" fill="#991b1b">Tools</text>
  <rect x="760" y="140" width="140" height="60" rx="10" fill="#e0e7ff" stroke="#4f46e5"/>
  <text x="794" y="176" font-size="20" font-family="Arial" fill="#312e81">Resources</text>
  <rect x="760" y="220" width="140" height="60" rx="10" fill="#ecfccb" stroke="#65a30d"/>
  <text x="803" y="256" font-size="20" font-family="Arial" fill="#365314">Prompts</text>
  <rect x="330" y="340" width="220" height="90" rx="12" fill="#fff7ed" stroke="#ea580c"/>
  <text x="361" y="392" font-size="24" font-family="Arial" fill="#9a3412">Auth / Governance</text>
  <line x1="250" y1="205" x2="330" y2="205" stroke="#374151" stroke-width="4"/>
  <line x1="550" y1="205" x2="630" y2="205" stroke="#374151" stroke-width="4"/>
  <line x1="810" y1="160" x2="810" y2="120" stroke="#374151" stroke-width="3"/>
  <line x1="810" y1="220" x2="810" y2="200" stroke="#374151" stroke-width="3"/>
  <line x1="630" y1="205" x2="760" y2="90" stroke="#374151" stroke-width="3"/>
  <line x1="630" y1="205" x2="760" y2="170" stroke="#374151" stroke-width="3"/>
  <line x1="630" y1="205" x2="760" y2="250" stroke="#374151" stroke-width="3"/>
  <line x1="440" y1="250" x2="440" y2="340" stroke="#374151" stroke-width="4"/>
  <text x="60" y="485" font-size="20" font-family="Arial" fill="#475569">MCP standardizes how hosts discover and call external capabilities, but it does not solve governance by itself.</text>
</svg>
