<svg xmlns="http://www.w3.org/2000/svg" width="960" height="540" viewBox="0 0 960 540">
  <rect width="960" height="540" fill="#f9fafb"/>
  <text x="60" y="70" font-size="30" font-family="Arial" fill="#1f2937">Skill Package Structure</text>
  <rect x="80" y="140" width="180" height="90" rx="12" fill="#dbeafe" stroke="#2563eb"/>
  <text x="123" y="186" font-size="24" font-family="Arial" fill="#1e3a8a">Trigger</text>
  <rect x="310" y="140" width="180" height="90" rx="12" fill="#fde68a" stroke="#d97706"/>
  <text x="342" y="186" font-size="24" font-family="Arial" fill="#92400e">SKILL.md</text>
  <rect x="540" y="95" width="170" height="70" rx="12" fill="#dcfce7" stroke="#16a34a"/>
  <text x="587" y="138" font-size="22" font-family="Arial" fill="#166534">Scripts</text>
  <rect x="540" y="185" width="170" height="70" rx="12" fill="#fee2e2" stroke="#dc2626"/>
  <text x="567" y="228" font-size="22" font-family="Arial" fill="#991b1b">Templates</text>
  <rect x="540" y="275" width="170" height="70" rx="12" fill="#e0e7ff" stroke="#4f46e5"/>
  <text x="565" y="318" font-size="22" font-family="Arial" fill="#312e81">References</text>
  <rect x="310" y="320" width="180" height="90" rx="12" fill="#fff7ed" stroke="#ea580c"/>
  <text x="343" y="366" font-size="24" font-family="Arial" fill="#9a3412">Evaluator</text>
  <rect x="740" y="170" width="140" height="80" rx="12" fill="#ecfccb" stroke="#65a30d"/>
  <text x="780" y="217" font-size="24" font-family="Arial" fill="#365314">Agent</text>
  <line x1="260" y1="185" x2="310" y2="185" stroke="#374151" stroke-width="4"/>
  <line x1="490" y1="185" x2="540" y2="130" stroke="#374151" stroke-width="3"/>
  <line x1="490" y1="185" x2="540" y2="220" stroke="#374151" stroke-width="3"/>
  <line x1="490" y1="185" x2="540" y2="310" stroke="#374151" stroke-width="3"/>
  <line x1="400" y1="230" x2="400" y2="320" stroke="#374151" stroke-width="4"/>
  <line x1="710" y1="130" x2="740" y2="210" stroke="#374151" stroke-width="3"/>
  <line x1="710" y1="220" x2="740" y2="210" stroke="#374151" stroke-width="3"/>
  <line x1="710" y1="310" x2="740" y2="210" stroke="#374151" stroke-width="3"/>
  <text x="60" y="475" font-size="20" font-family="Arial" fill="#475569">A good skill bundles when-to-use logic, task instructions, support assets, and evaluation hooks.</text>
</svg>
