<svg xmlns="http://www.w3.org/2000/svg" width="960" height="540" viewBox="0 0 960 540">
  <rect width="960" height="540" fill="#f8fafc"/>
  <text x="60" y="70" font-size="30" font-family="Arial" fill="#1f2937">RAG End-to-End Pipeline</text>
  <rect x="60" y="160" width="130" height="80" rx="12" fill="#dbeafe" stroke="#2563eb"/>
  <text x="87" y="208" font-size="22" font-family="Arial" fill="#1e3a8a">Source</text>
  <rect x="220" y="160" width="150" height="80" rx="12" fill="#fde68a" stroke="#d97706"/>
  <text x="253" y="208" font-size="22" font-family="Arial" fill="#92400e">Parsing</text>
  <rect x="410" y="160" width="150" height="80" rx="12" fill="#dcfce7" stroke="#16a34a"/>
  <text x="442" y="208" font-size="22" font-family="Arial" fill="#166534">Chunking</text>
  <rect x="600" y="160" width="150" height="80" rx="12" fill="#fee2e2" stroke="#dc2626"/>
  <text x="621" y="208" font-size="22" font-family="Arial" fill="#991b1b">Retrieval</text>
  <rect x="790" y="160" width="120" height="80" rx="12" fill="#e0e7ff" stroke="#4f46e5"/>
  <text x="816" y="208" font-size="22" font-family="Arial" fill="#312e81">LLM</text>
  <rect x="600" y="310" width="150" height="70" rx="12" fill="#ecfccb" stroke="#65a30d"/>
  <text x="627" y="353" font-size="22" font-family="Arial" fill="#365314">Rerank</text>
  <rect x="790" y="310" width="120" height="70" rx="12" fill="#fff7ed" stroke="#ea580c"/>
  <text x="806" y="353" font-size="22" font-family="Arial" fill="#9a3412">Citations</text>
  <line x1="190" y1="200" x2="220" y2="200" stroke="#374151" stroke-width="4"/>
  <line x1="370" y1="200" x2="410" y2="200" stroke="#374151" stroke-width="4"/>
  <line x1="560" y1="200" x2="600" y2="200" stroke="#374151" stroke-width="4"/>
  <line x1="750" y1="200" x2="790" y2="200" stroke="#374151" stroke-width="4"/>
  <line x1="675" y1="240" x2="675" y2="310" stroke="#374151" stroke-width="4"/>
  <line x1="750" y1="345" x2="790" y2="345" stroke="#374151" stroke-width="4"/>
  <text x="60" y="475" font-size="20" font-family="Arial" fill="#475569">Most real RAG quality problems originate before generation: parsing, chunking, retrieval, rerank, and evidence formatting.</text>
</svg>
